<svg xmlns="http://www.w3.org/2000/svg" viewBox="0 0 512 512">
  <defs>
    <linearGradient id="grad" x1="0%" y1="0%" x2="100%" y2="100%">
      <stop offset="0%" style="stop-color:#f97316"/>
      <stop offset="100%" style="stop-color:#ea580c"/>
    </linearGradient>
  </defs>
  <rect width="512" height="512" rx="96" fill="url(#grad)"/>
  <!-- QR Code pattern -->
  <g fill="white">
    <!-- Top-left finder -->
    <rect x="80" y="80" width="112" height="112" rx="8"/>
    <rect x="96" y="96" width="80" height="80" rx="4" fill="#ea580c"/>
    <rect x="112" y="112" width="48" height="48" rx="2" fill="white"/>

    <!-- Top-right finder -->
    <rect x="320" y="80" width="112" height="112" rx="8"/>
    <rect x="336" y="96" width="80" height="80" rx="4" fill="#ea580c"/>
    <rect x="352" y="112" width="48" height="48" rx="2" fill="white"/>

    <!-- Bottom-left finder -->
    <rect x="80" y="320" width="112" height="112" rx="8"/>
    <rect x="96" y="336" width="80" height="80" rx="4" fill="#ea580c"/>
    <rect x="112" y="352" width="48" height="48" rx="2" fill="white"/>

    <!-- Data modules -->
    <rect x="224" y="96" width="32" height="32" rx="4"/>
    <rect x="272" y="96" width="32" height="32" rx="4"/>
    <rect x="224" y="144" width="32" height="32" rx="4"/>
    <rect x="224" y="224" width="32" height="32" rx="4"/>
    <rect x="272" y="224" width="32" height="32" rx="4"/>
    <rect x="320" y="224" width="32" height="32" rx="4"/>
    <rect x="368" y="224" width="32" height="32" rx="4"/>
    <rect x="400" y="224" width="32" height="32" rx="4"/>
    <rect x="224" y="272" width="32" height="32" rx="4"/>
    <rect x="320" y="272" width="32" height="32" rx="4"/>
    <rect x="400" y="272" width="32" height="32" rx="4"/>
    <rect x="224" y="320" width="32" height="32" rx="4"/>
    <rect x="272" y="320" width="32" height="32" rx="4"/>
    <rect x="320" y="320" width="32" height="32" rx="4"/>
    <rect x="368" y="320" width="32" height="32" rx="4"/>
    <rect x="224" y="368" width="32" height="32" rx="4"/>
    <rect x="320" y="368" width="32" height="32" rx="4"/>
    <rect x="400" y="368" width="32" height="32" rx="4"/>
    <rect x="224" y="400" width="32" height="32" rx="4"/>
    <rect x="272" y="400" width="32" height="32" rx="4"/>
    <rect x="320" y="400" width="32" height="32" rx="4"/>
    <rect x="368" y="400" width="32" height="32" rx="4"/>
    <rect x="400" y="400" width="32" height="32" rx="4"/>
  </g>
</svg>
